<svg width="640" height="360" viewBox="0 0 640 360" fill="none" xmlns="http://www.w3.org/2000/svg">
  <defs>
    <linearGradient id="bg" x1="0" y1="0" x2="640" y2="360" gradientUnits="userSpaceOnUse">
      <stop stop-color="#1A2235"/>
      <stop offset="1" stop-color="#0F1726"/>
    </linearGradient>
    <linearGradient id="tile" x1="0" y1="0" x2="1" y2="1">
      <stop stop-color="#3B5C8F"/>
      <stop offset="1" stop-color="#203452"/>
    </linearGradient>
  </defs>
  <rect width="640" height="360" fill="url(#bg)"/>
  <g opacity="0.25">
    <path d="M0 300H640" stroke="#9AB0D8" stroke-width="2"/>
    <path d="M0 245H640" stroke="#9AB0D8" stroke-width="1"/>
    <path d="M0 190H640" stroke="#9AB0D8" stroke-width="1"/>
  </g>
  <g>
    <rect x="60" y="132" width="150" height="120" rx="12" fill="url(#tile)" stroke="#6A89BA" stroke-opacity="0.55"/>
    <rect x="230" y="102" width="170" height="150" rx="12" fill="url(#tile)" stroke="#6A89BA" stroke-opacity="0.55"/>
    <rect x="420" y="150" width="160" height="102" rx="12" fill="url(#tile)" stroke="#6A89BA" stroke-opacity="0.55"/>
    <rect x="90" y="158" width="90" height="12" rx="6" fill="#D8E5FF" fill-opacity="0.45"/>
    <rect x="90" y="180" width="62" height="9" rx="4.5" fill="#D8E5FF" fill-opacity="0.28"/>
    <rect x="260" y="128" width="120" height="12" rx="6" fill="#D8E5FF" fill-opacity="0.45"/>
    <rect x="260" y="151" width="82" height="9" rx="4.5" fill="#D8E5FF" fill-opacity="0.28"/>
    <rect x="450" y="176" width="88" height="12" rx="6" fill="#D8E5FF" fill-opacity="0.45"/>
    <rect x="450" y="198" width="64" height="9" rx="4.5" fill="#D8E5FF" fill-opacity="0.28"/>
  </g>
  <text x="60" y="70" fill="#F4F8FF" font-family="Arial, sans-serif" font-size="34" font-weight="700">Product Landscape</text>
</svg>
